HIERARCHY
ROOT Hips
{
   OFFSET 0.00000 0.00000 0.00000
   CHANNELS 6 Xposition Yposition Zposition Zrotation Xrotation Yrotation
   JOINT RightUpLeg
   {
      OFFSET -8.945800 -8.667070 0.101652
      CHANNELS 3 Zrotation Xrotation Yrotation
      JOINT RightLeg
      {
         OFFSET 0.000000 -44.422697 1.372700
         CHANNELS 3 Zrotation Xrotation Yrotation
         JOINT RightFoot
         {
            OFFSET 0.253549 -42.092399 -1.460590
            CHANNELS 3 Zrotation Xrotation Yrotation
            JOINT RightToes
            {
               OFFSET 0.040000 -4.415090 8.499099
               CHANNELS 3 Zrotation Xrotation Yrotation
               End Site
               {
                  OFFSET -0.080000 -0.137448 9.779790
               }
            }
         }
      }
   }
   JOINT Spine
   {
      OFFSET 0.000000 11.890501 0.000000
      CHANNELS 3 Zrotation Xrotation Yrotation
      JOINT Spine1
      {
         OFFSET 0.000000 25.657401 0.127663
         CHANNELS 3 Zrotation Xrotation Yrotation
         JOINT HEad
         {
            OFFSET 0.000000 8.734161 0.011341
            CHANNELS 3 Zrotation Xrotation Yrotation
            End Site
            {
               OFFSET -0.290000 12.774200 2.513950
            }
         }
         JOINT LeftShoulder1
         {
            OFFSET 8.990000 -0.362252 -0.220000
            CHANNELS 3 Zrotation Xrotation Yrotation
            JOINT LeftArm
            {
               OFFSET 10.282700 -0.003380 0.322123
               CHANNELS 3 Zrotation Xrotation Yrotation
               JOINT LeftForeArm
               {
                  OFFSET 32.766900 0.099144 -1.424340
                  CHANNELS 3 Zrotation Xrotation Yrotation
                  JOINT LeftHand
                  {
                     OFFSET 27.564301 0.085362 1.022160
                     CHANNELS 3 Zrotation Xrotation Yrotation
                     End Site
                     {
                        OFFSET 16.744301 -0.600000 1.502910
                     }
                  }
               }
            }
         }
         JOINT RightShoulder
         {
            OFFSET -8.990000 -0.362252 -0.220000
            CHANNELS 3 Zrotation Xrotation Yrotation
            JOINT RightArm
            {
               OFFSET -10.282700 -0.003380 0.322123
               CHANNELS 3 Zrotation Xrotation Yrotation
               JOINT RightForeArm
               {
                  OFFSET -32.897098 0.099144 -1.424340
                  CHANNELS 3 Zrotation Xrotation Yrotation
                  JOINT RightHand
                  {
                     OFFSET -27.492101 0.085362 1.022160
                     CHANNELS 3 Zrotation Xrotation Yrotation
                     End Site
                     {
                        OFFSET -16.631201 -0.600000 1.502910
                     }
                  }
               }
            }
         }
      }
   }
   JOINT LeftUpLeg
   {
      OFFSET 8.945800 -8.667070 0.101652
      CHANNELS 3 Zrotation Xrotation Yrotation
      JOINT LeftLeg
      {
         OFFSET 0.000000 -44.422697 1.372700
         CHANNELS 3 Zrotation Xrotation Yrotation
         JOINT LeftFoot
         {
            OFFSET -0.253549 -42.092399 -1.460590
            CHANNELS 3 Zrotation Xrotation Yrotation
            JOINT LeftToes
            {
               OFFSET -0.040000 -4.415090 8.499099
               CHANNELS 3 Zrotation Xrotation Yrotation
               End Site
               {
                  OFFSET 0.080000 -0.047448 9.779790
               }
            }
         }
      }
   }
}
MOTION
Frames: 16
Frame Time: 0.016667
-883.376070 93.235644 437.969239 -55.090639 25.388911 -63.227758 -54.037643 -24.888069 -70.352492 -164.937293 57.143907 -161.040083 3.477008 15.120164 -29.848169 3.159507 22.486767 -0.453097 18.248749 32.515822 -63.813330 0.612174 24.635563 58.889338 32.765647 26.345259 -40.059285 -65.292114 4.675904 -31.065504 13.575313 17.771698 -62.878086 -13.778620 -14.566258 -60.057225 -33.202048 -25.228361 -76.639613 83.916251 64.704513 -66.624793 118.747142 112.472725 184.512001 1.520795 151.958117 48.880549 8.423906 -6.894280 41.685174 54.048851 16.087389 -152.765705 -39.721122 -50.201399 123.847066 -54.179554 -4.157810 6.218029 -1.551304 -5.677421 6.507932
-880.468584 93.469752 439.138673 -51.203965 22.589847 -68.549356 -49.387049 -28.712401 -75.434132 -150.868948 54.740285 181.898743 4.296233 17.091220 -31.635780 3.711629 20.990044 0.882715 10.184516 32.856826 -56.641775 1.209203 26.974338 57.173765 32.512404 27.007562 -39.567354 -62.786842 6.036201 -30.576954 9.508749 13.567910 -63.000073 -13.469557 -11.733323 -58.845119 -32.817966 -24.690521 -77.817431 82.548649 62.799532 -63.978983 116.850767 121.587708 183.386946 -0.105661 162.656912 49.362071 6.894491 -7.574422 41.703731 45.898250 15.664269 -146.788224 -41.438198 -50.741390 127.132264 -51.367715 -2.102387 5.931881 -1.564486 -5.549191 6.401894
-877.468630 93.886231 440.348657 -48.079771 20.995042 -72.370328 -44.998796 -32.992242 -80.329725 -140.105375 49.976399 167.551261 4.483081 18.708400 -32.796741 4.233934 19.392092 2.146962 4.423020 33.736022 -50.532683 2.579052 26.414877 55.581399 31.610061 26.862277 -38.500765 -59.463914 7.110057 -30.245857 5.130166 8.378418 -63.690558 -13.616488 -8.379318 -58.791263 -32.663812 -23.803599 -78.788534 78.800910 60.217878 -60.335337 115.848614 131.172786 184.383866 -1.363612 173.841975 48.954192 7.352916 -6.851143 40.664423 39.849953 14.357438 -141.673737 -41.718215 -50.650979 130.499671 -48.492998 -0.777652 6.026823 -1.491273 -5.797862 6.288196
-874.389178 94.407557 441.707261 -45.923453 19.185298 -74.739967 -40.404008 -35.682325 -84.234442 -130.972566 45.605907 156.317390 4.832373 19.158494 -32.440656 4.896218 17.527908 4.078385 -0.225786 34.896335 -45.405400 3.843440 26.505335 52.836393 30.040832 26.066894 -36.878899 -55.590940 9.517503 -29.806911 0.397109 2.317124 -64.138318 -13.710071 -5.035947 -58.541265 -32.527379 -22.673438 -78.242768 75.395269 58.946233 -54.919956 114.902770 141.312980 185.317294 -1.811478 185.841442 49.553637 7.911621 -5.768000 41.584599 35.114160 13.214058 -137.698485 -40.295490 -49.839276 133.252606 -45.296513 0.753215 6.797716 -1.433918 -5.849992 6.130477
-871.329256 94.974059 443.049729 -43.667855 16.998936 -76.997720 -37.766305 -38.164881 -87.329371 -124.489582 41.615479 147.631793 5.158451 19.678069 -32.092532 5.244762 14.947317 4.579962 -1.789714 37.368067 -42.269257 5.510920 24.331231 48.692832 28.803942 25.568053 -35.140569 -50.902203 12.027996 -30.125963 -4.179027 -4.985831 -65.472308 -13.903141 -1.525115 -57.592770 -32.520382 -21.598802 -75.428491 71.461428 59.118443 -47.507251 113.266564 153.072080 185.670114 -2.344786 197.371375 50.743108 8.002993 -5.585342 42.566207 30.143848 11.543059 -133.764829 -38.730892 -48.933155 135.553819 -42.319186 1.989863 7.853030 -1.432070 -5.737673 6.544887
-868.157183 95.645417 444.497102 -41.430927 16.576459 -80.183409 -34.188382 -40.157571 -89.122603 -115.907245 39.076475 137.688732 6.779709 20.219641 -30.871871 5.472695 12.154234 4.476552 -2.448952 42.159257 -39.179949 6.769551 21.227777 44.161531 27.348701 26.085575 -33.225967 -45.530499 13.550700 -30.438253 -9.260926 -13.719555 -68.243200 -14.784177 0.576477 -53.751263 -31.751101 -20.190620 -71.791394 65.974573 62.201542 -42.159927 112.662242 167.374578 188.288112 -1.998057 210.671475 52.923994 9.741124 -3.494943 41.471440 25.688343 8.659770 -130.247992 -37.836133 -47.383508 137.839542 -39.387191 3.042488 9.760342 -1.525117 -5.348293 7.676712
-864.841753 96.142853 446.018098 -39.363996 15.498910 -83.332385 -29.232387 -40.651524 -88.628302 -104.893872 36.472336 125.645346 8.481923 20.658998 -29.254253 5.656339 9.810360 4.358227 -3.023133 45.534276 -35.704346 7.087045 17.690765 39.289492 25.672622 26.357422 -31.220938 -39.789885 16.144479 -28.899507 -15.046306 -21.815812 -72.326389 -16.785243 2.851614 -52.438292 -31.092934 -18.909638 -68.041607 59.608359 62.125447 -36.140016 112.423951 182.306997 191.946989 -2.208021 222.928372 53.010901 11.370247 -1.473725 38.690546 21.344773 6.326979 -126.798364 -36.403962 -45.389906 139.409994 -36.111272 4.600447 11.926943 -1.715226 -4.405332 8.329189
-861.460787 96.483620 447.646287 -36.459522 13.777554 -87.859230 -23.559768 -40.760178 -86.179912 -93.105478 33.006807 112.384028 9.931795 20.521892 -26.950917 5.849084 7.394179 4.353478 -2.431462 49.749462 -31.822640 6.552731 13.189202 34.118335 23.043124 25.680125 -29.001137 -34.071921 18.558845 -26.779799 -21.486549 -29.056472 -78.666581 -19.057010 4.539429 -51.267998 -30.294030 -18.295720 -63.525684 52.913339 60.739172 -30.654552 113.166283 196.210134 196.506428 -2.101008 235.412305 54.368552 13.619037 1.241526 35.047685 17.047012 2.998838 -121.918521 -35.565891 -44.332374 140.181860 -32.674119 6.855162 13.955986 -2.023188 -2.792309 8.388571
-858.050601 96.802281 449.326928 -35.590828 13.528051 -90.996124 -16.269854 -36.364019 -82.897036 -80.486164 29.163275 98.829736 11.486694 20.252884 -23.511517 6.103069 5.083201 4.768783 -6.132931 48.204060 -27.131132 6.483366 14.685482 28.260609 19.815233 23.642543 -26.020248 -29.751922 22.482428 -23.762436 -30.253643 -36.984399 -86.012190 -21.372070 5.337087 -50.461164 -26.462893 -14.562636 -58.911106 47.468257 62.535860 -26.551978 114.841831 211.452780 199.862878 -2.896902 248.906136 52.816753 16.479711 -0.396419 34.258986 14.908611 0.968861 -117.418028 -33.639754 -41.492839 142.140977 -24.240188 9.624337 17.487736 -2.292808 -1.304108 8.561197
-854.820696 96.831578 450.937837 -31.828507 12.638852 -95.982353 -9.314447 -33.056480 -77.959984 -68.128746 24.174731 86.724852 12.875248 18.117849 -19.032643 6.456696 1.492244 5.581785 -9.512092 48.553861 -21.152951 6.083644 15.664132 22.824312 16.236012 22.104394 -22.632759 -26.513451 25.826641 -20.035771 -40.716438 -45.006111 -95.797658 -22.223991 4.677209 -48.634085 -20.698477 -10.162692 -53.293128 43.643174 65.229468 -22.492904 115.900442 225.961769 203.285049 -4.063507 261.802025 51.217861 17.120410 0.284178 32.999468 12.649337 -2.327742 -114.365972 -29.427839 -37.841714 142.023484 -14.048914 13.277028 19.303901 -2.493847 -0.075963 7.498855
-851.823870 96.882990 452.469972 -27.657779 9.957670 -102.422846 -4.617366 -30.446982 -72.412320 -56.876539 18.431646 76.232124 13.614187 16.671734 -14.882077 6.773391 -0.751654 6.362352 -13.134535 47.596747 -14.125479 4.428286 14.613791 17.576097 12.074726 17.938568 -19.063459 -23.883473 29.328399 -15.965731 -52.322125 -51.306175 -107.939918 -23.166888 4.543011 -47.893993 -18.308006 -9.420569 -51.319419 39.847566 68.497126 -19.101637 118.292606 239.620357 207.654935 -6.794514 274.573987 50.202809 16.967802 1.302317 33.322041 10.543500 -6.351641 -110.279777 -26.129324 -36.028363 140.404319 -2.933867 17.088208 19.975955 -2.600424 0.451614 5.723914
-849.196765 97.133807 453.799165 -23.666464 6.643562 -110.748936 -1.048782 -28.891768 -64.017294 -47.780848 14.843145 65.964512 12.845922 15.323256 -11.235794 7.059647 -2.283858 6.780221 -18.353890 44.952282 -5.051021 3.114756 12.598045 12.652059 8.666270 11.140837 -16.043629 -22.238048 34.801870 -11.888550 -67.581771 -56.429011 -121.847324 -22.739554 5.474956 -47.207232 -23.749114 -16.705461 -53.895216 37.903322 72.547141 -14.612415 122.835502 249.949707 214.017830 -8.893861 287.182680 49.417768 15.539457 3.390695 34.659733 8.503509 -11.897296 -106.643555 -25.830160 -32.724799 137.890359 9.741562 22.464740 20.255983 -2.636774 0.518993 3.739457
-846.774813 97.924975 455.036652 -21.914186 3.293779 -116.376697 -0.275906 -24.980333 -56.885603 -37.941936 12.197483 54.013436 10.416239 15.140132 -8.422271 7.336181 -3.169555 6.553353 -21.584374 39.112935 0.807576 3.767204 12.235078 6.274751 6.261884 5.692710 -13.408958 -22.036048 39.763394 -7.034860 -83.612655 -57.276566 -135.620933 -20.275898 5.440733 -46.405681 -25.720005 -17.180149 -53.931464 37.746982 78.087217 -10.188309 128.407871 259.998254 221.970698 -10.222782 299.162012 52.022658 14.514929 1.640089 40.044019 8.463785 -15.251787 -103.240399 -27.772765 -29.414940 136.879942 2.526179 25.144076 21.643567 -2.569089 -0.461581 2.728467
-846.747424 98.217247 455.050881 -19.604537 0.028282 -119.052465 -0.884813 -23.210844 -49.872289 -30.902142 10.845123 42.947232 6.788937 13.536038 -8.184095 7.625226 -3.760413 5.866946 -22.788960 35.086658 4.867945 4.273444 15.348011 -0.630105 3.749386 4.515450 -10.860907 -20.881299 44.167674 -3.199534 -95.908758 -51.141137 -149.603218 -18.099356 5.761813 -46.954474 -29.725820 -18.953473 -58.031521 37.956188 82.991450 -6.707922 135.847354 269.124671 230.326164 -11.410923 310.045127 52.594745 12.938762 1.256345 42.278762 8.466974 -20.071942 -98.904520 -33.043393 -26.352448 135.657297 1.766957 24.879743 21.388247 -2.487786 -1.495204 1.393471
-847.049472 98.653496 454.978135 -15.848916 -2.358715 -120.255166 -2.343959 -22.506358 -42.598835 -21.987287 10.362439 31.221191 2.532231 12.000527 -8.088869 7.927198 -3.786797 4.817752 -23.048591 33.779886 9.877506 4.234529 20.541509 -5.455881 0.299751 6.206458 -8.329147 -19.391107 49.768470 1.925574 -105.975023 -42.264196 -161.713130 -17.537330 6.868202 -48.970674 -31.793926 -17.414607 -61.681410 37.953988 86.498527 -3.235906 141.680076 278.863455 238.578398 -13.185321 319.626571 54.482148 12.064288 -0.411280 44.880920 11.118450 -25.520254 -94.897542 -36.929979 -25.318540 135.283440 -2.633132 23.244884 20.926240 -2.384018 -2.920357 0.286404
-847.623965 98.872031 454.890206 -14.513814 -3.609478 -123.342015 -5.023910 -20.060179 -34.470493 -12.063307 10.599105 19.294893 -2.417303 9.963521 -7.949399 8.254343 -4.233145 3.826986 -21.665020 29.683514 13.591404 5.022155 23.057141 -10.214312 -0.819616 4.134836 -6.519421 -18.499036 58.123899 5.839385 -114.826313 -33.216702 -170.765111 -16.113670 8.797923 -48.893551 -35.028219 -16.610947 -67.457605 37.801023 93.616082 -0.396568 149.008445 286.499006 248.714700 -14.582491 328.403418 54.613540 11.167008 -0.794013 45.122115 13.343960 -28.408176 -91.828465 -39.554087 -24.828612 135.508030 -4.050215 22.244166 20.498192 -2.308679 -3.982793 -0.446386
